<svg width="25" height="25" viewBox="0 0 25 25" fill="none" xmlns="http://www.w3.org/2000/svg">
<path d="M3.07929 0.5H21.1701C22.5946 0.5 23.7494 1.65479 23.7494 3.07929V21.1701C23.7494 22.5946 22.5946 23.7494 21.1701 23.7494H3.07929C1.65479 23.7494 0.5 22.5946 0.5 21.1701V3.07929C0.5 1.65479 1.65479 0.5 3.07929 0.5Z" fill="#43B899" stroke="#43B899"/>
<path fill-rule="evenodd" clip-rule="evenodd" d="M12.7019 6.92844H13.0868C13.1889 6.92844 13.2868 6.96899 13.359 7.04118C13.4312 7.11336 13.4717 7.21127 13.4717 7.31335V8.37648C16.2342 8.86608 18.7027 11.0547 18.7027 13.8568C18.7027 14.7522 20.8031 16.6017 19.9448 16.6017H4.79696C3.98672 16.6017 5.86779 14.7318 5.86779 13.8568C5.86779 11.0539 8.38703 8.86454 11.1622 8.37571V7.31335C11.1622 7.21127 11.2028 7.11336 11.275 7.04118C11.3472 6.96899 11.4451 6.92844 11.5472 6.92844H11.9321V6.15862H11.5472C11.4451 6.15862 11.3472 6.11806 11.275 6.04588C11.2028 5.97369 11.1622 5.87579 11.1622 5.77371C11.1622 5.67162 11.2028 5.57372 11.275 5.50153C11.3472 5.42935 11.4451 5.38879 11.5472 5.38879H13.0868C13.1889 5.38879 13.2868 5.42935 13.359 5.50153C13.4312 5.57372 13.4717 5.67162 13.4717 5.77371C13.4717 5.87579 13.4312 5.97369 13.359 6.04588C13.2868 6.11806 13.1889 6.15862 13.0868 6.15862H12.7019V6.92844ZM3.84892 17.706H20.785C20.9892 17.706 21.185 17.7871 21.3294 17.9314C21.4737 18.0758 21.5549 18.2716 21.5549 18.4758C21.5549 18.68 21.4737 18.8758 21.3294 19.0201C21.185 19.1645 20.9892 19.2456 20.785 19.2456H3.84892C3.64475 19.2456 3.44895 19.1645 3.30458 19.0201C3.16021 18.8758 3.0791 18.68 3.0791 18.4758C3.0791 18.2716 3.16021 18.0758 3.30458 17.9314C3.44895 17.7871 3.64475 17.706 3.84892 17.706Z" fill="white" stroke="white" stroke-width="0.2" stroke-linecap="round"/>
<path d="M17.5134 13.6644C17.5134 11.2198 14.8768 9.18518 12.4326 9.18518" stroke="#43B899" stroke-linecap="round"/>
</svg>
