<svg width="310" height="100" xmlns="http://www.w3.org/2000/svg"><g fill="none" fill-rule="evenodd"><g transform="translate(23 19)"><rect fill="#43B899" width="63" height="63" rx="8"/><path d="M33 18h1a1 1 0 0 1 1 1v2.762C42.177 23.034 48.59 28.72 48.59 36c0 2.326 5.457 7.131 3.227 7.131H12.463c-2.105 0 2.782-4.858 2.782-7.131 0-7.282 6.545-12.97 13.755-14.24V19a1 1 0 0 1 1-1h1v-2h-1a1 1 0 0 1 0-2h4a1 1 0 0 1 0 2h-1v2zM10 46h44a2 2 0 1 1 0 4H10a2 2 0 1 1 0-4z" stroke="#FFF" fill="#FFF" stroke-linecap="round"/><path d="M45.5 35.5c0-6.351-6.85-11.637-13.2-11.637" stroke="#43B899" stroke-width="2" stroke-linecap="round"/></g><path d="M122.94 70.74c-4.36 0-7.94-1.44-10.74-4.32-2.8-2.88-4.2-6.52-4.2-10.92s1.4-8.03 4.2-10.89c2.8-2.86 6.38-4.29 10.74-4.29 4.84 0 8.54 1.72 11.1 5.16l-4.14 3.78c-1.6-2.24-3.82-3.36-6.66-3.36-2.6 0-4.71.89-6.33 2.67-1.62 1.78-2.43 4.09-2.43 6.93s.81 5.16 2.43 6.96c1.62 1.8 3.73 2.7 6.33 2.7 2.8 0 5.02-1.16 6.66-3.48l4.14 3.9c-2.6 3.44-6.3 5.16-11.1 5.16zm39.74-.72h-6.3v-3.18c-2.24 2.6-5.38 3.9-9.42 3.9-2.6 0-4.92-.86-6.96-2.58-2.04-1.72-3.06-4.06-3.06-7.02 0-3.12 1-5.48 3-7.08 2-1.6 4.34-2.4 7.02-2.4 4.12 0 7.26 1.24 9.42 3.72v-4.32c0-1.64-.63-2.95-1.89-3.93-1.26-.98-2.89-1.47-4.89-1.47-3.28 0-6.14 1.24-8.58 3.72L138.38 45c3.24-3.12 7.3-4.68 12.18-4.68 3.56 0 6.47.83 8.73 2.49 2.26 1.66 3.39 4.31 3.39 7.95v19.26zm-13.2-3.6c3.08 0 5.38-1 6.9-3v-4.44c-1.52-2-3.82-3-6.9-3-1.8 0-3.29.48-4.47 1.44-1.18.96-1.77 2.22-1.77 3.78 0 1.56.59 2.82 1.77 3.78 1.18.96 2.67 1.44 4.47 1.44zm26.66 3.6h-6.3V30h6.3v40.02zm13.46 0h-6.3V30h6.3v40.02zm13.46-8.7c.72 1.12 1.78 2.04 3.18 2.76 1.4.72 2.84 1.08 4.32 1.08 2.48 0 4.46-.9 5.94-2.7 1.48-1.8 2.22-4.12 2.22-6.96s-.74-5.15-2.22-6.93c-1.48-1.78-3.46-2.67-5.94-2.67-1.48 0-2.92.37-4.32 1.11-1.4.74-2.46 1.67-3.18 2.79v11.52zm0 8.7h-6.3V30h6.3v15.06c2.36-3.16 5.46-4.74 9.3-4.74 3.8 0 6.9 1.38 9.3 4.14 2.4 2.76 3.6 6.44 3.6 11.04 0 4.72-1.2 8.44-3.6 11.16-2.4 2.72-5.5 4.08-9.3 4.08-3.8 0-6.9-1.56-9.3-4.68v3.96zm41 .72c-4.44 0-8.08-1.4-10.92-4.2-2.84-2.8-4.26-6.48-4.26-11.04 0-4.24 1.39-7.83 4.17-10.77 2.78-2.94 6.29-4.41 10.53-4.41 4.28 0 7.72 1.47 10.32 4.41 2.6 2.94 3.9 6.71 3.9 11.31v1.56h-22.32c.24 2.28 1.18 4.18 2.82 5.7 1.64 1.52 3.76 2.28 6.36 2.28 3.36 0 6.12-1.08 8.28-3.24l2.88 4.14c-3.04 2.84-6.96 4.26-11.76 4.26zm7.68-17.64c-.12-2-.87-3.77-2.25-5.31-1.38-1.54-3.37-2.31-5.97-2.31-2.48 0-4.42.77-5.82 2.31-1.4 1.54-2.16 3.31-2.28 5.31h16.32zm17.6 16.92h-6.3V30h6.3v40.02zm13.46 0h-6.3V30h6.3v40.02z" fill="#43B899"/></g></svg>